<svg xmlns="http://www.w3.org/2000/svg" xmlns:xlink="http://www.w3.org/1999/xlink" id="Layer_1" x="0px" y="0px" viewBox="0 0 486.2 121.5" style="enable-background:new 0 0 486.2 121.5;" xml:space="preserve"><g>&#x9;<g>&#x9;&#x9;&#x9;&#x9;&#x9;<linearGradient id="SVGID_1_" gradientUnits="userSpaceOnUse" x1="22.4" y1="64.3963" x2="117.9937" y2="64.3963" gradientTransform="matrix(1 0 0 -1 0 124)">&#x9;&#x9;&#x9;<stop offset="0" style="stop-color:#ED2127"></stop>&#x9;&#x9;&#x9;<stop offset="0.243" style="stop-color:#ED1F2C"></stop>&#x9;&#x9;&#x9;<stop offset="0.5287" style="stop-color:#ED1B3A"></stop>&#x9;&#x9;&#x9;<stop offset="0.5429" style="stop-color:#ED1A3B"></stop>&#x9;&#x9;&#x9;<stop offset="0.6292" style="stop-color:#E91A3A"></stop>&#x9;&#x9;&#x9;<stop offset="0.7266" style="stop-color:#DB1A38"></stop>&#x9;&#x9;&#x9;<stop offset="0.8294" style="stop-color:#C41935"></stop>&#x9;&#x9;&#x9;<stop offset="0.9352" style="stop-color:#A51930"></stop>&#x9;&#x9;&#x9;<stop offset="1" style="stop-color:#8E182C"></stop>&#x9;&#x9;</linearGradient>&#x9;&#x9;<path class="st0" d="M96.2,16.3C80.4,4,60.8,1.6,43.6,7.1c-1,0.3-0.7,1.9,0.4,1.8c1.3-0.1,2.6-0.2,3.9-0.3H48   c0.9-0.1,1.7-0.2,2.6-0.3c0.9-0.1,1.7-0.1,2.6-0.1c25.8,0,46.7,20.9,46.7,46.7c0,3.3-0.4,6.6-1,9.8c0,0.2-0.1,0.5-0.2,0.7   c-2,18.9-18,33.6-37.4,33.6c-20.8,0-37.7-16.9-37.7-37.7c0-2.7,0.3-5.3,0.8-7.8c0.1-0.4,0.2-0.7,0.3-1.1c-0.1,0.3-0.2,0.6-0.3,0.8   c-1.2,3.9-1.9,8-2,12.1c0,1.5,0,3,0.1,4.5c0.3,4.5,1.3,8.9,2.9,13.2c1.1,2.8,2.4,5.6,4,8.2c1.4,2.3,2.9,4.4,4.7,6.4   c0.3,0.3,0.5,0.7,0.8,1c0.8,0.9,1.6,1.7,2.4,2.5l0.1,0.1c0.8,0.7,1.6,1.5,2.4,2.1c0.1,0.1,0.2,0.2,0.3,0.3   c0.7,0.6,1.4,1.2,2.2,1.7c0.2,0.2,0.5,0.4,0.7,0.5c0.4,0.3,0.8,0.5,1.2,0.8c0.6,0.4,1.1,0.8,1.7,1.1l0.3,0.2   c1.2,0.8,2.4,1.3,3.6,1.9c0.3,0.2,0.8,0.3,1.1,0.5c1.1,0.5,2.1,1,3.2,1.4c0.2,0.1,0.5,0.2,0.7,0.3c1.3,0.5,2.5,0.9,3.8,1.3h0.1   c0.3,0.1,0.6,0.2,0.9,0.3c0.6,0.2,1.3,0.3,1.9,0.5c0.9,0.2,1.7,0.4,2.6,0.5c0.2,0,0.4,0.1,0.6,0.1s0.5,0,0.6,0.1   c1.2,0.1,2.3,0.1,3.5,0.1c10.2,0,19.6-3.3,27.2-8.8c5.1-4,9.6-8.8,13.2-14.6c1.1-1.8,2.2-3.6,3.1-5.5   C124,62.1,117.2,32.7,96.2,16.3z"></path>&#x9;&#x9;&#x9;&#x9;&#x9;<linearGradient id="SVGID_00000021841968296308947910000015981037217529591483_" gradientUnits="userSpaceOnUse" x1="4.4282" y1="60.8665" x2="99.8593" y2="60.8665" gradientTransform="matrix(1 0 0 -1 0 124)">&#x9;&#x9;&#x9;<stop offset="1.782853e-03" style="stop-color:#ED2127"></stop>&#x9;&#x9;&#x9;<stop offset="0.121" style="stop-color:#ED1A3B"></stop>&#x9;&#x9;&#x9;<stop offset="0.1683" style="stop-color:#E11839"></stop>&#x9;&#x9;&#x9;<stop offset="0.3072" style="stop-color:#C31133"></stop>&#x9;&#x9;&#x9;<stop offset="0.454" style="stop-color:#AC0C2F"></stop>&#x9;&#x9;&#x9;<stop offset="0.6102" style="stop-color:#9B092C"></stop>&#x9;&#x9;&#x9;<stop offset="0.782" style="stop-color:#91072B"></stop>&#x9;&#x9;&#x9;<stop offset="1" style="stop-color:#8E062A"></stop>&#x9;&#x9;</linearGradient>&#x9;&#x9;<path style="fill:url(#SVGID_00000021841968296308947910000015981037217529591483_);" d="M53.2,8.2c-0.9,0-1.7,0-2.6,0.1   c-0.8,0.1-1.6,0.1-2.4,0.2c-0.1,0-0.3,0-0.4,0c-0.3,0-0.6,0.1-0.8,0.1C35.6,10.2,25.4,15.8,18.2,24c-0.9,1-1.7,2.1-2.5,3.1   c-0.3,0.4-0.7,0.9-1,1.3c-0.2,0.3-0.3,0.5-0.5,0.8c-0.5,0.8-1.1,1.6-1.6,2.4c-16.4,27-7.3,62.9,20,78.9c12,7,25.7,8.9,38.5,6.7   c1.2-0.2,1.1-2-0.1-2.1c-0.8-0.1-1.5-0.1-2.2-0.1c-0.2,0-1.5-0.1-1.7-0.1c-0.9-0.1-0.4,0-1.4-0.1c-0.2,0-0.7-0.1-0.9-0.1   c-0.2,0-0.5-0.1-0.7-0.1c-0.9-0.1-1.7-0.4-2.6-0.5c-0.6-0.1-1.3-0.3-1.9-0.5c-0.3-0.1-0.6-0.2-0.9-0.3h-0.1   c-1.3-0.4-2.6-0.8-3.8-1.3c-0.2-0.1-0.5-0.2-0.7-0.3c-1.1-0.4-2.1-0.9-3.2-1.4c-0.3-0.2-0.7-0.3-1-0.5c-1.3-0.6-2.6-1.3-3.8-2   l-0.1-0.1c-0.6-0.4-1.1-0.7-1.7-1.1c-0.4-0.3-0.8-0.5-1.2-0.8c-0.2-0.2-0.5-0.4-0.7-0.5c-0.7-0.6-1.5-1.1-2.2-1.7   c-0.1-0.1-0.2-0.2-0.3-0.3c-0.8-0.7-1.6-1.4-2.4-2.1l-0.1-0.1c-0.8-0.8-1.6-1.6-2.4-2.5c-0.3-0.3-0.6-0.7-0.8-1   c-1.7-2-3.3-4.2-4.7-6.4c-1.6-2.6-2.9-5.4-4-8.2c-1.6-4.3-2.5-8.7-2.9-13.2c-0.1-1.5-0.1-3-0.1-4.5c0.1-4.1,0.8-8.1,2-12.1   c0.1-0.3,0.2-0.6,0.3-0.8c4-16.5,18.8-28.7,36.5-28.7C82.1,23.7,99,40.6,99,61.4c0,0.8-0.1,1.5-0.1,2.3c0,0.6,0,1.2-0.1,1.8   c0.1-0.2,0.1-0.4,0.2-0.7c0.7-3.1,1-6.4,1-9.8C99.9,29.1,79,8.2,53.2,8.2z"></path>&#x9;</g>&#x9;<g>&#x9;&#x9;<g>&#x9;&#x9;&#x9;<path class="st2" d="M468.3,90.7V29.1c0-3.2,2.6-5.8,5.8-5.8h8.2v67.4H468.3z"></path>&#x9;&#x9;&#x9;<path class="st2" d="M442.8,85c-3.3,4.1-8.5,6.4-15.4,6.4c-10.4,0-16.8-6.4-16.8-15.3c0-9.2,6.6-14.6,18.6-14.7h13.4v-0.9    c0-5.2-3.5-8.2-10.2-8.2c-4.4,0-9.4,1.5-14.5,4.3l-0.9-2c-2-4.4,0.2-9.6,4.8-11.2c4.3-1.4,8.6-2.1,13.8-2.1    c13.1,0,20.6,6.5,20.7,17.5l0.1,31.9h-12c-0.9,0-1.7-0.8-1.7-1.7v-4H442.8z M442.7,74v-4.4h-11c-5.4,0-8,1.6-8,5.5    c0,3.7,2.9,6.2,7.6,6.2C437.3,81.3,441.9,78.2,442.7,74z"></path>&#x9;&#x9;&#x9;<path class="st2" d="M375.8,29.3c0-3.2,2.6-5.8,5.8-5.8h8.1v17.9h6.7c3.6,0,6.5,2.9,6.5,6.5V53h-13.3v20.8c0,4.1,1.7,5.7,4.7,5.6    c1.8,0,4-0.6,6.5-1.8l2.9,10.3c-3.6,2.1-8.2,3.4-12.7,3.4c-8.7,0-15.4-5-15.4-15.1V29.3H375.8z"></path>&#x9;&#x9;&#x9;<path class="st2" d="M364.3,26.4c0,4.5-3.1,7.8-7.5,7.8s-7.5-3.3-7.5-7.8s3.1-7.8,7.5-7.8S364.3,21.9,364.3,26.4z M349.8,90.7    V47.2c0-3.2,2.6-5.8,5.8-5.8h8.2v49.3H349.8z"></path>&#x9;&#x9;&#x9;<path class="st2" d="M339.1,86.2c0,13.9-10.3,23.4-25.4,23.5c-2.2,0-5.8-0.3-9.7-1.7c-5.4-2-10.3-9.2-7.1-15.3l0,0    c4.5,3.2,7.2,5.2,15.2,5.2c7,0,13.1-4.6,13.1-11.2v-5.5c-3.3,4.5-8.3,7.1-14.7,7.1c-12.6,0-21.3-9.4-21.3-23.6    c0-13.8,8.5-23.2,21-23.2c6.6-0.1,11.7,2.5,15.1,7.1v-1.3c0-3.2,2.6-5.8,5.8-5.8h8.1v44.7H339.1z M325.2,64.9    c0-7.5-4.6-12.7-11.4-12.7s-11.4,5.3-11.5,12.7c0.1,7.5,4.6,12.6,11.5,12.6C320.6,77.5,325.2,72.3,325.2,64.9z"></path>&#x9;&#x9;&#x9;<path class="st2" d="M280.7,26.4c0,4.5-3.1,7.8-7.5,7.8c-4.5,0-7.5-3.3-7.5-7.8s3.1-7.8,7.5-7.8    C277.6,18.6,280.7,21.9,280.7,26.4z M266.1,90.7V47.2c0-3.2,2.6-5.8,5.8-5.8h8.2v49.3H266.1z"></path>&#x9;&#x9;&#x9;<path class="st2" d="M254,90.7h-12.2c-0.9,0-1.7-0.8-1.7-1.7v-5.5c-3.5,5-8.7,7.7-15.4,7.7c-13.9,0-23.1-10.1-23.1-25.2    c0-14.9,9.1-24.8,22.7-24.8c6.9,0,12.3,2.7,15.8,7.7V30.3c0-3.9,3.1-7,7-7h6.9V90.7z M240.1,66.4c0-8-5-13.5-12.2-13.5    c-7.3,0-12.3,5.6-12.4,13.5c0.1,8,5,13.5,12.4,13.5C235.1,80,240.1,74.4,240.1,66.4z"></path>&#x9;&#x9;&#x9;<path class="st2" d="M178.7,85c-3.3,4.1-8.5,6.4-15.4,6.4c-10.4,0-16.8-6.4-16.8-15.3c0-9.2,6.6-14.6,18.6-14.7h13.4v-0.9    c0-5.2-3.5-8.2-10.2-8.2c-4.4,0-9.4,1.5-14.5,4.3l-0.9-2c-2-4.4,0.2-9.6,4.8-11.2c4.3-1.4,8.6-2.1,13.8-2.1    c13.1,0,20.6,6.5,20.7,17.5l0.1,31.9h-12c-0.9,0-1.7-0.8-1.7-1.7L178.7,85L178.7,85z M178.6,73.8v-4.2h-11c-5.4,0-8,1.6-8,5.5    c0,3.7,2.9,6.2,7.6,6.2c5.8,0,10.4-3.1,11.3-7.2C178.6,74,178.6,73.9,178.6,73.8z"></path>&#x9;&#x9;</g>&#x9;</g></g></svg>